<svg width="249" height="49" viewBox="0 0 249 49" fill="none" xmlns="http://www.w3.org/2000/svg">
<rect width="248" height="48" transform="translate(0.986572 0.275879)" fill="#181818"/>
<path d="M64.0026 33.2759H42.4986V16.9079H64.0026V19.9559H46.3386V23.6999H63.5226V26.2199H46.3386V30.2279H64.0026V33.2759ZM70.4758 33.2759H65.4358L73.9798 27.1079L65.5318 21.1559H70.6438L76.5478 25.3079L82.4038 21.1559H87.4438L79.0678 27.1079L87.6598 33.2759H82.5478L76.4998 28.9319L70.4758 33.2759ZM90.3572 32.0519C88.7252 31.0439 87.9092 29.4199 87.9092 27.1799C87.9092 24.9399 88.7252 23.3239 90.3572 22.3319C92.0052 21.3399 94.6612 20.8439 98.3252 20.8439C101.157 20.8439 103.829 21.1479 106.341 21.7559L105.597 24.6359C103.277 24.1399 100.685 23.8919 97.8212 23.8919C95.4852 23.8919 93.8452 24.1319 92.9012 24.6119C91.9572 25.0759 91.4852 25.9319 91.4852 27.1799C91.4852 28.4439 91.9492 29.3159 92.8772 29.7959C93.8212 30.2599 95.4692 30.4919 97.8212 30.4919C100.685 30.4919 103.277 30.2439 105.597 29.7479L106.341 32.6519C103.765 33.2439 101.093 33.5399 98.3252 33.5399C94.6612 33.5399 92.0052 33.0439 90.3572 32.0519ZM117.984 30.7319C120.592 30.7319 123.168 30.4999 125.712 30.0359L126.456 32.6519C123.896 33.2759 120.968 33.5879 117.672 33.5879C114.248 33.5879 111.744 33.0919 110.16 32.0999C108.592 31.1079 107.808 29.4759 107.808 27.2039C107.808 24.9959 108.608 23.3879 110.208 22.3799C111.824 21.3559 114.2 20.8439 117.336 20.8439C123.64 20.8439 126.792 22.7079 126.792 26.4359C126.792 27.1399 126.76 27.6839 126.696 28.0679H111.336C111.528 29.1239 112.104 29.8359 113.064 30.2039C114.04 30.5559 115.68 30.7319 117.984 30.7319ZM117.216 23.2919C115.264 23.2919 113.832 23.5079 112.92 23.9399C112.024 24.3559 111.496 25.0919 111.336 26.1479H123.264C123.136 25.1239 122.632 24.3959 121.752 23.9639C120.888 23.5159 119.376 23.2919 117.216 23.2919ZM132.911 15.2759V33.2759H129.335V15.2759H132.911ZM139.52 15.2759V33.2759H135.944V15.2759H139.52ZM152.249 30.7319C154.857 30.7319 157.433 30.4999 159.977 30.0359L160.721 32.6519C158.161 33.2759 155.233 33.5879 151.937 33.5879C148.513 33.5879 146.009 33.0919 144.425 32.0999C142.857 31.1079 142.073 29.4759 142.073 27.2039C142.073 24.9959 142.873 23.3879 144.473 22.3799C146.089 21.3559 148.465 20.8439 151.601 20.8439C157.905 20.8439 161.057 22.7079 161.057 26.4359C161.057 27.1399 161.025 27.6839 160.961 28.0679H145.601C145.793 29.1239 146.369 29.8359 147.329 30.2039C148.305 30.5559 149.945 30.7319 152.249 30.7319ZM151.481 23.2919C149.529 23.2919 148.097 23.5079 147.185 23.9399C146.289 24.3559 145.761 25.0919 145.601 26.1479H157.529C157.401 25.1239 156.897 24.3959 156.017 23.9639C155.153 23.5159 153.641 23.2919 151.481 23.2919ZM163.6 33.2759V21.1559H166.744L166.984 22.7159C170.072 21.4679 172.928 20.8439 175.552 20.8439C177.808 20.8439 179.512 21.3079 180.664 22.2359C181.832 23.1479 182.416 24.6119 182.416 26.6279V33.2759H178.84V27.1559C178.84 24.9639 177.36 23.8679 174.4 23.8679C172.448 23.8679 170.04 24.2919 167.176 25.1399V33.2759H163.6ZM186.746 27.3959V24.0599H183.962V21.1559H186.842L187.466 18.0359H190.346V21.1559H200.21V24.0599H190.346V27.0839C190.346 28.3959 190.642 29.2999 191.234 29.7959C191.842 30.2919 192.962 30.5399 194.594 30.5399C196.258 30.5399 198.186 30.3079 200.378 29.8439L201.074 32.6999C198.706 33.2919 196.45 33.5879 194.306 33.5879C191.666 33.5879 189.746 33.1159 188.546 32.1719C187.346 31.2279 186.746 29.6359 186.746 27.3959ZM206.854 21.8759L206.398 27.7799H203.566L203.11 21.8759V16.9079H206.854V21.8759ZM206.83 28.9319V33.2759H203.11V28.9319H206.83Z" fill="#8800CC"/>
</svg>
