<svg width="195" height="38" viewBox="0 0 195 38" fill="none" xmlns="http://www.w3.org/2000/svg">
<rect width="194" height="37" transform="translate(0.48291 0.475098)" fill="#181818"/>
<path d="M43.1389 23.2751C41.8269 22.3471 41.1709 20.9338 41.1709 19.0351C41.1709 17.1364 41.8269 15.7231 43.1389 14.7951C44.4509 13.8671 46.5682 13.4031 49.4909 13.4031C51.8376 13.4031 54.2856 13.7124 56.8349 14.3311L56.3709 16.4591C53.4909 15.8938 51.1389 15.6111 49.3149 15.6111C47.8749 15.6111 46.7442 15.7391 45.9229 15.9951C45.1016 16.2511 44.5309 16.6191 44.2109 17.0991C43.8909 17.5791 43.7309 18.2244 43.7309 19.0351C43.7309 19.8458 43.8909 20.4911 44.2109 20.9711C44.5309 21.4511 45.1016 21.8191 45.9229 22.0751C46.7442 22.3311 47.8749 22.4591 49.3149 22.4591C50.6056 22.4591 52.2322 22.2991 54.1949 21.9791V18.8751H56.8349V23.7391C54.2856 24.3578 51.8376 24.6671 49.4909 24.6671C46.5682 24.6671 44.4509 24.2031 43.1389 23.2751ZM60.07 23.6431C58.9394 22.9604 58.374 21.8884 58.374 20.4271C58.374 18.9658 58.9394 17.8938 60.07 17.2111C61.2114 16.5178 62.9714 16.1711 65.35 16.1711C67.7394 16.1711 69.4994 16.5178 70.63 17.2111C71.7714 17.8938 72.342 18.9658 72.342 20.4271C72.342 21.8884 71.7714 22.9604 70.63 23.6431C69.4994 24.3258 67.7394 24.6671 65.35 24.6671C62.9714 24.6671 61.2114 24.3258 60.07 23.6431ZM61.766 18.7151C61.094 19.0458 60.758 19.6164 60.758 20.4271C60.758 21.2378 61.094 21.8138 61.766 22.1551C62.438 22.4858 63.6327 22.6511 65.35 22.6511C67.078 22.6511 68.278 22.4858 68.95 22.1551C69.622 21.8138 69.958 21.2378 69.958 20.4271C69.958 19.6164 69.622 19.0458 68.95 18.7151C68.278 18.3738 67.078 18.2031 65.35 18.2031C63.6327 18.2031 62.438 18.3738 61.766 18.7151ZM75.4138 23.6431C74.2831 22.9604 73.7178 21.8884 73.7178 20.4271C73.7178 18.9658 74.2831 17.8938 75.4138 17.2111C76.5551 16.5178 78.3151 16.1711 80.6938 16.1711C83.0831 16.1711 84.8431 16.5178 85.9738 17.2111C87.1151 17.8938 87.6858 18.9658 87.6858 20.4271C87.6858 21.8884 87.1151 22.9604 85.9738 23.6431C84.8431 24.3258 83.0831 24.6671 80.6938 24.6671C78.3151 24.6671 76.5551 24.3258 75.4138 23.6431ZM77.1098 18.7151C76.4378 19.0458 76.1018 19.6164 76.1018 20.4271C76.1018 21.2378 76.4378 21.8138 77.1098 22.1551C77.7818 22.4858 78.9765 22.6511 80.6938 22.6511C82.4218 22.6511 83.6218 22.4858 84.2938 22.1551C84.9658 21.8138 85.3018 21.2378 85.3018 20.4271C85.3018 19.6164 84.9658 19.0458 84.2938 18.7151C83.6218 18.3738 82.4218 18.2031 80.6938 18.2031C78.9765 18.2031 77.7818 18.3738 77.1098 18.7151ZM99.4455 12.4751H101.846V24.4751H99.7495L99.5575 23.2431C97.5202 24.1711 95.6749 24.6351 94.0215 24.6351C92.3895 24.6351 91.1522 24.3098 90.3095 23.6591C89.4775 23.0084 89.0615 21.9631 89.0615 20.5231C89.0615 18.9978 89.5735 17.9044 90.5975 17.2431C91.6322 16.5711 93.0935 16.2351 94.9815 16.2351C96.3682 16.2351 97.8562 16.3738 99.4455 16.6511V12.4751ZM91.4455 20.4751C91.4455 21.2538 91.6749 21.8138 92.1335 22.1551C92.5922 22.4858 93.3442 22.6511 94.3895 22.6511C95.7655 22.6511 97.4509 22.3311 99.4455 21.6911V18.4911C97.7602 18.2778 96.2189 18.1711 94.8215 18.1711C93.7015 18.1711 92.8589 18.3524 92.2935 18.7151C91.7282 19.0778 91.4455 19.6644 91.4455 20.4751ZM112.173 22.5231C113.763 22.5231 114.835 22.3204 115.389 21.9151C115.955 21.4991 116.237 20.7844 116.237 19.7711V13.5631H118.797V19.7871C118.797 21.4404 118.307 22.6778 117.325 23.4991C116.344 24.3098 114.659 24.7151 112.269 24.7151C110.648 24.7151 109.267 24.5231 108.125 24.1391L108.717 22.0431C109.773 22.3631 110.925 22.5231 112.173 22.5231ZM122.023 23.6431C120.892 22.9604 120.327 21.8884 120.327 20.4271C120.327 18.9658 120.892 17.8938 122.023 17.2111C123.164 16.5178 124.924 16.1711 127.303 16.1711C129.692 16.1711 131.452 16.5178 132.583 17.2111C133.724 17.8938 134.295 18.9658 134.295 20.4271C134.295 21.8884 133.724 22.9604 132.583 23.6431C131.452 24.3258 129.692 24.6671 127.303 24.6671C124.924 24.6671 123.164 24.3258 122.023 23.6431ZM123.719 18.7151C123.047 19.0458 122.711 19.6164 122.711 20.4271C122.711 21.2378 123.047 21.8138 123.719 22.1551C124.391 22.4858 125.586 22.6511 127.303 22.6511C129.031 22.6511 130.231 22.4858 130.903 22.1551C131.575 21.8138 131.911 21.2378 131.911 20.4271C131.911 19.6164 131.575 19.0458 130.903 18.7151C130.231 18.3738 129.031 18.2031 127.303 18.2031C125.586 18.2031 124.391 18.3738 123.719 18.7151ZM135.991 24.4751V12.4751H138.375V17.2751C140.306 16.5498 142.151 16.1871 143.911 16.1871C147.154 16.1871 148.775 17.5738 148.775 20.3471C148.775 23.0991 146.978 24.4751 143.383 24.4751H135.991ZM143.703 18.1231C142.359 18.1231 140.583 18.4751 138.375 19.1791V22.5391H143.191C144.258 22.5391 145.058 22.3684 145.591 22.0271C146.124 21.6751 146.391 21.1151 146.391 20.3471C146.391 19.5684 146.172 19.0031 145.735 18.6511C145.308 18.2991 144.631 18.1231 143.703 18.1231ZM152.811 16.8751L152.507 20.8111H150.619L150.315 16.8751V13.5631H152.811V16.8751ZM152.795 21.5791V24.4751H150.315V21.5791H152.795Z" fill="#8800CC"/>
</svg>
