<svg width="96" height="35" viewBox="0 0 96 35" fill="none" xmlns="http://www.w3.org/2000/svg">
<rect width="95" height="34" transform="translate(0.949707 0.220703)" fill="#181818"/>
<path d="M30.7217 22.2207H21.8317V12.6727H30.7217C32.551 12.6727 33.9277 13.0414 34.8517 13.7787C35.785 14.5067 36.2517 15.7247 36.2517 17.4327C36.2517 19.1687 35.785 20.4007 34.8517 21.1287C33.9277 21.8567 32.551 22.2207 30.7217 22.2207ZM24.0717 14.5907V20.3027H30.5117C31.7624 20.3027 32.6444 20.0927 33.1577 19.6727C33.671 19.2527 33.9277 18.506 33.9277 17.4327C33.9277 16.3687 33.671 15.6314 33.1577 15.2207C32.6444 14.8007 31.7624 14.5907 30.5117 14.5907H24.0717ZM38.9361 21.4927C37.9468 20.8954 37.4521 19.9574 37.4521 18.6787C37.4521 17.4 37.9468 16.462 38.9361 15.8647C39.9348 15.258 41.4748 14.9547 43.5561 14.9547C45.6468 14.9547 47.1868 15.258 48.1761 15.8647C49.1748 16.462 49.6741 17.4 49.6741 18.6787C49.6741 19.9574 49.1748 20.8954 48.1761 21.4927C47.1868 22.09 45.6468 22.3887 43.5561 22.3887C41.4748 22.3887 39.9348 22.09 38.9361 21.4927ZM40.4201 17.1807C39.8321 17.47 39.5381 17.9694 39.5381 18.6787C39.5381 19.388 39.8321 19.892 40.4201 20.1907C41.0081 20.48 42.0534 20.6247 43.5561 20.6247C45.0681 20.6247 46.1181 20.48 46.7061 20.1907C47.2941 19.892 47.5881 19.388 47.5881 18.6787C47.5881 17.9694 47.2941 17.47 46.7061 17.1807C46.1181 16.882 45.0681 16.7327 43.5561 16.7327C42.0534 16.7327 41.0081 16.882 40.4201 17.1807ZM51.1579 22.2207V15.1507H52.9919L53.1319 16.0607C54.9332 15.3327 56.5992 14.9687 58.1299 14.9687C59.4459 14.9687 60.4399 15.2394 61.1119 15.7807C61.7932 16.3127 62.1339 17.1667 62.1339 18.3427V22.2207H60.0479V18.6507C60.0479 17.372 59.1845 16.7327 57.4579 16.7327C56.3192 16.7327 54.9145 16.98 53.2439 17.4747V22.2207H51.1579ZM69.4057 20.7367C70.927 20.7367 72.4297 20.6014 73.9137 20.3307L74.3477 21.8567C72.8543 22.2207 71.1463 22.4027 69.2237 22.4027C67.2263 22.4027 65.7657 22.1134 64.8417 21.5347C63.927 20.956 63.4697 20.004 63.4697 18.6787C63.4697 17.3907 63.9363 16.4527 64.8697 15.8647C65.8123 15.2674 67.1983 14.9687 69.0277 14.9687C72.705 14.9687 74.5437 16.056 74.5437 18.2307C74.5437 18.6414 74.525 18.9587 74.4877 19.1827H65.5277C65.6397 19.7987 65.9757 20.214 66.5357 20.4287C67.105 20.634 68.0617 20.7367 69.4057 20.7367ZM68.9577 16.3967C67.819 16.3967 66.9837 16.5227 66.4517 16.7747C65.929 17.0174 65.621 17.4467 65.5277 18.0627H72.4857C72.411 17.4654 72.117 17.0407 71.6037 16.7887C71.0997 16.5274 70.2177 16.3967 68.9577 16.3967Z" fill="#8800CC"/>
</svg>
