<svg width="432" height="76" viewBox="0 0 432 76" fill="none" xmlns="http://www.w3.org/2000/svg">
<rect width="431" height="75" transform="translate(0.82959 0.443848)" fill="#181818"/>
<path d="M47.3546 51.1488C44.2946 49.2588 42.7646 46.2138 42.7646 42.0138C42.7646 37.8138 44.2946 34.7838 47.3546 32.9238C50.4446 31.0638 55.4246 30.1338 62.2946 30.1338C67.6046 30.1338 72.6146 30.7038 77.3246 31.8438L75.9296 37.2438C71.5796 36.3138 66.7196 35.8488 61.3496 35.8488C56.9696 35.8488 53.8946 36.2988 52.1246 37.1988C50.3546 38.0688 49.4696 39.6738 49.4696 42.0138C49.4696 44.3838 50.3396 46.0188 52.0796 46.9188C53.8496 47.7888 56.9396 48.2238 61.3496 48.2238C66.7196 48.2238 71.5796 47.7588 75.9296 46.8288L77.3246 52.2738C72.4946 53.3838 67.4846 53.9388 62.2946 53.9388C55.4246 53.9388 50.4446 53.0088 47.3546 51.1488ZM84.8442 51.1038C81.6642 49.1838 80.0742 46.1688 80.0742 42.0588C80.0742 37.9488 81.6642 34.9338 84.8442 33.0138C88.0542 31.0638 93.0042 30.0888 99.6942 30.0888C106.414 30.0888 111.364 31.0638 114.544 33.0138C117.754 34.9338 119.359 37.9488 119.359 42.0588C119.359 46.1688 117.754 49.1838 114.544 51.1038C111.364 53.0238 106.414 53.9838 99.6942 53.9838C93.0042 53.9838 88.0542 53.0238 84.8442 51.1038ZM89.6142 37.2438C87.7242 38.1738 86.7792 39.7788 86.7792 42.0588C86.7792 44.3388 87.7242 45.9588 89.6142 46.9188C91.5042 47.8488 94.8642 48.3138 99.6942 48.3138C104.554 48.3138 107.929 47.8488 109.819 46.9188C111.709 45.9588 112.654 44.3388 112.654 42.0588C112.654 39.7788 111.709 38.1738 109.819 37.2438C107.929 36.2838 104.554 35.8038 99.6942 35.8038C94.8642 35.8038 91.5042 36.2838 89.6142 37.2438ZM124.128 53.4438V30.7188H130.023L130.473 33.5538C135.633 31.2738 140.298 30.1338 144.468 30.1338C149.418 30.1338 152.868 31.4238 154.818 34.0038C160.668 31.4238 165.843 30.1338 170.343 30.1338C174.363 30.1338 177.408 31.0038 179.478 32.7438C181.548 34.4538 182.583 37.1988 182.583 40.9788V53.4438H175.878V41.9688C175.878 37.8588 173.313 35.8038 168.183 35.8038C165.153 35.8038 161.238 36.5388 156.438 38.0088C156.618 38.9088 156.708 39.8988 156.708 40.9788V53.4438H150.003V41.9688C150.003 37.8588 147.438 35.8038 142.308 35.8038C139.338 35.8038 135.513 36.5838 130.833 38.1438V53.4438H124.128ZM194.511 61.7688H187.761V30.7188H193.656L194.196 34.1838C199.986 31.5738 205.326 30.2688 210.216 30.2688C219.216 30.2688 223.716 34.1238 223.716 41.8338C223.716 49.8738 218.241 53.8938 207.291 53.8938C203.241 53.8938 198.981 53.4888 194.511 52.6788V61.7688ZM209.001 35.8488C205.131 35.8488 200.301 36.7638 194.511 38.5938V47.5488C199.791 48.1488 204.171 48.4488 207.651 48.4488C210.801 48.4488 213.141 47.9538 214.671 46.9638C216.231 45.9438 217.011 44.2788 217.011 41.9688C217.011 39.8088 216.381 38.2488 215.121 37.2888C213.891 36.3288 211.851 35.8488 209.001 35.8488ZM235.204 19.6938V53.4438L228.499 53.4438V19.6938H235.204ZM259.071 48.6738C263.961 48.6738 268.791 48.2388 273.561 47.3688L274.956 52.2738C270.156 53.4438 264.666 54.0288 258.486 54.0288C252.066 54.0288 247.371 53.0988 244.401 51.2388C241.461 49.3788 239.991 46.3188 239.991 42.0588C239.991 37.9188 241.491 34.9038 244.491 33.0138C247.521 31.0938 251.976 30.1338 257.856 30.1338C269.676 30.1338 275.586 33.6288 275.586 40.6188C275.586 41.9388 275.526 42.9588 275.406 43.6788H246.606C246.966 45.6588 248.046 46.9938 249.846 47.6838C251.676 48.3438 254.751 48.6738 259.071 48.6738ZM257.631 34.7238C253.971 34.7238 251.286 35.1288 249.576 35.9388C247.896 36.7188 246.906 38.0988 246.606 40.0788H268.971C268.731 38.1588 267.786 36.7938 266.136 35.9838C264.516 35.1438 261.681 34.7238 257.631 34.7238ZM283.279 42.4188V36.1638H278.059V30.7188H283.459L284.629 24.8688H290.029V30.7188H308.524V36.1638H290.029V41.8338C290.029 44.2938 290.584 45.9888 291.694 46.9188C292.834 47.8488 294.934 48.3138 297.994 48.3138C301.114 48.3138 304.729 47.8788 308.839 47.0088L310.144 52.3638C305.704 53.4738 301.474 54.0288 297.454 54.0288C292.504 54.0288 288.904 53.1438 286.654 51.3738C284.404 49.6038 283.279 46.6188 283.279 42.4188ZM331.976 48.6738C336.866 48.6738 341.696 48.2388 346.466 47.3688L347.861 52.2738C343.061 53.4438 337.571 54.0288 331.391 54.0288C324.971 54.0288 320.276 53.0988 317.306 51.2388C314.366 49.3788 312.896 46.3188 312.896 42.0588C312.896 37.9188 314.396 34.9038 317.396 33.0138C320.426 31.0938 324.881 30.1338 330.761 30.1338C342.581 30.1338 348.491 33.6288 348.491 40.6188C348.491 41.9388 348.431 42.9588 348.311 43.6788H319.511C319.871 45.6588 320.951 46.9938 322.751 47.6838C324.581 48.3438 327.656 48.6738 331.976 48.6738ZM330.536 34.7238C326.876 34.7238 324.191 35.1288 322.481 35.9388C320.801 36.7188 319.811 38.0988 319.511 40.0788H341.876C341.636 38.1588 340.691 36.7938 339.041 35.9838C337.421 35.1438 334.586 34.7238 330.536 34.7238ZM381.564 19.6938H388.314V53.4438H382.419L381.879 49.9788C376.149 52.5888 370.959 53.8938 366.309 53.8938C361.719 53.8938 358.239 52.9788 355.869 51.1488C353.529 49.3188 352.359 46.3788 352.359 42.3288C352.359 38.0388 353.799 34.9638 356.679 33.1038C359.589 31.2138 363.699 30.2688 369.009 30.2688C372.909 30.2688 377.094 30.6588 381.564 31.4388V19.6938ZM359.064 42.1938C359.064 44.3838 359.709 45.9588 360.999 46.9188C362.289 47.8488 364.404 48.3138 367.344 48.3138C371.214 48.3138 375.954 47.4138 381.564 45.6138V36.6138C376.824 36.0138 372.489 35.7138 368.559 35.7138C365.409 35.7138 363.039 36.2238 361.449 37.2438C359.859 38.2638 359.064 39.9138 359.064 42.1938Z" fill="#8800CC"/>
</svg>
