<svg width="636" height="128" viewBox="0 0 636 128" fill="none" xmlns="http://www.w3.org/2000/svg">
<path d="M18.2266 86.0574C13.938 94.0256 6.86177 103.322 0 109.431C5.78962 111.423 15.6534 115.673 20.1564 118.063C27.2326 111.025 36.2387 99.7362 41.8139 90.4399L18.2266 86.0574ZM68.4032 29.881C66.6878 34.1308 63.4713 39.4429 60.8982 43.5599H32.5934L48.0324 40.9038C47.1746 37.9821 44.8159 33.5996 42.6716 29.881H68.4032ZM103.999 83.4013V67.3319H73.9784V59.2308H108.287V43.5599H88.5597C91.1328 40.107 93.9204 36.1228 97.1369 31.7403L80.8402 29.881H104.856V14.3429H76.1227C73.764 9.82753 70.3331 4.38255 67.5455 0L36.2387 4.64816C37.9541 7.56985 39.6696 11.0228 41.1706 14.3429H7.29063V29.881H33.88L17.1544 32.4043C18.8699 35.7244 21.0142 40.2398 22.0863 43.5599H3.85974V59.2308H43.7438V67.3319H5.36075V83.4013H43.7438V126.563H73.9784V83.4013H103.999ZM205.424 45.0207H142.596V26.5609C162.753 24.1704 183.981 20.7175 201.564 16.335L177.977 2.12488C162.109 6.90583 137.021 11.4212 113.648 14.2101V62.6838C113.648 73.4409 113.219 86.1902 109.145 97.877C105.285 93.4944 100.139 88.315 95.4214 84.0653L75.4794 91.1039C81.269 96.9473 88.3452 105.048 91.7761 110.095L106.357 104.384C104.213 108.634 101.64 112.618 97.9946 116.204C104.428 118.196 117.079 124.172 122.011 127.492C139.809 110.759 142.596 82.6044 142.596 62.8166H157.177V127.094H187.412V62.8166H205.424V45.0207Z" fill="#8800CC"/>
<path d="M418.139 69.7224H335.154V57.3716H405.059V38.9117H335.154V24.0376C358.098 22.3112 379.97 20.0535 399.698 17.1318L377.183 1.06244C340.515 6.64023 283.262 10.0932 231.156 11.2884C234.158 15.5381 238.018 23.3736 238.875 28.2874C259.246 27.889 280.904 27.2249 302.561 26.0297V38.9117H234.158V57.3716H302.561V69.7224H219.148V88.5806H302.561V105.447C302.561 108.103 300.631 109.033 295.699 109.033C290.553 109.033 272.112 109.033 257.316 108.634C262.034 113.681 268.038 122.313 269.968 127.758C291.411 127.891 307.922 127.36 319.501 124.438C331.08 121.516 335.154 116.602 335.154 105.845V88.5806H418.139V69.7224Z" fill="#8800CC"/>
<path d="M495.334 46.6144H521.709V28.4202H495.334V1.59366H465.099V28.4202H434.65V46.6144H461.668C454.806 61.2229 442.584 77.4251 428.217 87.651C433.149 92.6976 440.44 100.799 443.442 106.509C451.59 100.267 458.881 91.768 465.099 82.3388V127.758H495.334V76.6282C500.051 81.6748 504.769 86.7214 507.771 90.7055L526.426 74.6362C521.923 71.0504 502.41 56.1763 495.334 51.661V46.6144ZM636 28.0218H614.771V1.72646H582.821V28.0218H527.713V46.3488H582.821V104.517C582.821 107.04 581.32 107.837 577.032 107.837C572.529 107.837 558.805 107.837 546.154 107.439C550.657 113.017 555.589 122.18 556.875 127.758C576.603 127.891 591.613 127.094 601.477 123.907C611.555 120.852 614.771 115.54 614.771 104.783V46.3488H636V28.0218ZM578.318 84.0653C574.887 75.433 564.166 63.3478 553.444 54.0515L527.713 61.7541C537.791 71.4489 547.44 84.3309 550.228 92.6976L578.318 84.0653Z" fill="#8800CC"/>
</svg>
