<svg width="45" height="45" viewBox="0 0 45 45" fill="none" xmlns="http://www.w3.org/2000/svg">
<path d="M45 41.5387H41.5388V45H45V41.5387Z" fill="#8800CC"/>
<path d="M45 38.0775H41.5388V41.5387H45V38.0775Z" fill="#8800CC"/>
<path d="M45 34.6162H41.5388V38.0775H45V34.6162Z" fill="#8800CC"/>
<path d="M45 31.155H41.5388V34.6162H45V31.155Z" fill="#8800CC"/>
<path d="M45 27.6937H41.5388V31.155H45V27.6937Z" fill="#8800CC"/>
<path d="M45 24.2325H41.5388V27.6937H45V24.2325Z" fill="#8800CC"/>
<path d="M45 20.7675H41.5388V24.2325H45V20.7675Z" fill="#8800CC"/>
<path d="M45 17.3063H41.5388V20.7675H45V17.3063Z" fill="#8800CC"/>
<path d="M41.5388 38.0775H38.0775V41.5387H41.5388V38.0775Z" fill="#8800CC"/>
<path d="M41.5388 34.6162H38.0775V38.0775H41.5388V34.6162Z" fill="#8800CC"/>
<path d="M41.5388 31.155H38.0775V34.6162H41.5388V31.155Z" fill="#8800CC"/>
<path d="M41.5388 27.6937H38.0775V31.155H41.5388V27.6937Z" fill="#8800CC"/>
<path d="M41.5388 24.2325H38.0775V27.6937H41.5388V24.2325Z" fill="#E5E5E5"/>
<path d="M41.5388 20.7675H38.0775V24.2325H41.5388V20.7675Z" fill="#141414"/>
<path d="M41.5388 17.3063H38.0775V20.7675H41.5388V17.3063Z" fill="#141414"/>
<path d="M41.5388 13.845H38.0775V17.3063H41.5388V13.845Z" fill="#E5E5E5"/>
<path d="M41.5388 10.3837H38.0775V13.845H41.5388V10.3837Z" fill="#8800CC"/>
<path d="M38.0775 34.6162H34.6162V38.0775H38.0775V34.6162Z" fill="#8800CC"/>
<path d="M38.0775 31.155H34.6162V34.6162H38.0775V31.155Z" fill="#8800CC"/>
<path d="M38.0775 27.6937H34.6162V31.155H38.0775V27.6937Z" fill="#8800CC"/>
<path d="M38.0775 24.2325H34.6162V27.6937H38.0775V24.2325Z" fill="#E5E5E5"/>
<path d="M38.0775 20.7675H34.6162V24.2325H38.0775V20.7675Z" fill="#141414"/>
<path d="M38.0775 17.3063H34.6162V20.7675H38.0775V17.3063Z" fill="#141414"/>
<path d="M38.0775 13.845H34.6162V17.3063H38.0775V13.845Z" fill="#E5E5E5"/>
<path d="M38.0775 10.3837H34.6162V13.845H38.0775V10.3837Z" fill="#8800CC"/>
<path d="M38.0775 6.9225H34.6162V10.3837H38.0775V6.9225Z" fill="#8800CC"/>
<path d="M34.6162 38.0775H31.155V41.5387H34.6162V38.0775Z" fill="#8800CC"/>
<path d="M34.6162 34.6162H31.155V38.0775H34.6162V34.6162Z" fill="#8800CC"/>
<path d="M34.6162 31.155H31.155V34.6162H34.6162V31.155Z" fill="#8800CC"/>
<path d="M34.6162 27.6937H31.155V31.155H34.6162V27.6937Z" fill="#8800CC"/>
<path d="M34.6162 24.2325H31.155V27.6937H34.6162V24.2325Z" fill="#8800CC"/>
<path d="M34.6162 20.7675H31.155V24.2325H34.6162V20.7675Z" fill="#E5E5E5"/>
<path d="M34.6162 17.3063H31.155V20.7675H34.6162V17.3063Z" fill="#E5E5E5"/>
<path d="M34.6162 13.845H31.155V17.3063H34.6162V13.845Z" fill="#E5E5E5"/>
<path d="M34.6162 10.3837H31.155V13.845H34.6162V10.3837Z" fill="#8800CC"/>
<path d="M34.6162 6.9225H31.155V10.3837H34.6162V6.9225Z" fill="#8800CC"/>
<path d="M34.6162 3.46125H31.155V6.9225H34.6162V3.46125Z" fill="#8800CC"/>
<path d="M31.155 41.5387H27.6937V45H31.155V41.5387Z" fill="#8800CC"/>
<path d="M31.155 38.0775H27.6937V41.5387H31.155V38.0775Z" fill="#8800CC"/>
<path d="M31.155 34.6162H27.6937V38.0775H31.155V34.6162Z" fill="#8800CC"/>
<path d="M31.155 31.155H27.6937V34.6162H31.155V31.155Z" fill="#8800CC"/>
<path d="M31.155 27.6937H27.6937V31.155H31.155V27.6937Z" fill="#8800CC"/>
<path d="M31.155 24.2325H27.6937V27.6937H31.155V24.2325Z" fill="#8800CC"/>
<path d="M31.155 20.7675H27.6937V24.2325H31.155V20.7675Z" fill="#8800CC"/>
<path d="M31.155 17.3063H27.6937V20.7675H31.155V17.3063Z" fill="#8800CC"/>
<path d="M31.155 13.845H27.6937V17.3063H31.155V13.845Z" fill="#8800CC"/>
<path d="M31.155 10.3837H27.6937V13.845H31.155V10.3837Z" fill="#8800CC"/>
<path d="M31.155 6.9225H27.6937V10.3837H31.155V6.9225Z" fill="#8800CC"/>
<path d="M31.155 3.46125H27.6937V6.9225H31.155V3.46125Z" fill="#8800CC"/>
<path d="M31.155 0H27.6937V3.46125H31.155V0Z" fill="#8800CC"/>
<path d="M27.6937 38.0775H24.2325V41.5387H27.6937V38.0775Z" fill="#8800CC"/>
<path d="M27.6937 34.6162H24.2325V38.0775H27.6937V34.6162Z" fill="#8800CC"/>
<path d="M27.6937 31.155H24.2325V34.6162H27.6937V31.155Z" fill="#8800CC"/>
<path d="M27.6937 27.6937H24.2325V31.155H27.6937V27.6937Z" fill="#8800CC"/>
<path d="M27.6937 24.2325H24.2325V27.6937H27.6937V24.2325Z" fill="#8800CC"/>
<path d="M27.6937 20.7675H24.2325V24.2325H27.6937V20.7675Z" fill="#8800CC"/>
<path d="M27.6937 17.3063H24.2325V20.7675H27.6937V17.3063Z" fill="#8800CC"/>
<path d="M27.6937 13.845H24.2325V17.3063H27.6937V13.845Z" fill="#8800CC"/>
<path d="M27.6937 10.3837H24.2325V13.845H27.6937V10.3837Z" fill="#8800CC"/>
<path d="M27.6937 6.9225H24.2325V10.3837H27.6937V6.9225Z" fill="#8800CC"/>
<path d="M27.6937 3.46125H24.2325V6.9225H27.6937V3.46125Z" fill="#8800CC"/>
<path d="M27.6937 0H24.2325V3.46125H27.6937V0Z" fill="#8800CC"/>
<path d="M24.2325 34.6162H20.7713V38.0775H24.2325V34.6162Z" fill="#8800CC"/>
<path d="M24.2325 31.155H20.7713V34.6162H24.2325V31.155Z" fill="#8800CC"/>
<path d="M24.2325 27.6937H20.7713V31.155H24.2325V27.6937Z" fill="#8800CC"/>
<path d="M24.2325 24.2325H20.7713V27.6937H24.2325V24.2325Z" fill="#8800CC"/>
<path d="M24.2325 20.7675H20.7713V24.2325H24.2325V20.7675Z" fill="#8800CC"/>
<path d="M24.2325 17.3063H20.7713V20.7675H24.2325V17.3063Z" fill="#8800CC"/>
<path d="M24.2325 13.845H20.7713V17.3063H24.2325V13.845Z" fill="#8800CC"/>
<path d="M24.2325 10.3837H20.7713V13.845H24.2325V10.3837Z" fill="#8800CC"/>
<path d="M24.2325 6.9225H20.7713V10.3837H24.2325V6.9225Z" fill="#8800CC"/>
<path d="M24.2325 3.46125H20.7713V6.9225H24.2325V3.46125Z" fill="#8800CC"/>
<path d="M24.2325 0H20.7713V3.46125H24.2325V0Z" fill="#8800CC"/>
<path d="M20.7713 38.0775H17.31V41.5387H20.7713V38.0775Z" fill="#8800CC"/>
<path d="M20.7713 34.6162H17.31V38.0775H20.7713V34.6162Z" fill="#8800CC"/>
<path d="M20.7713 31.155H17.31V34.6162H20.7713V31.155Z" fill="#8800CC"/>
<path d="M20.7713 27.6937H17.31V31.155H20.7713V27.6937Z" fill="#8800CC"/>
<path d="M20.7713 24.2325H17.31V27.6937H20.7713V24.2325Z" fill="#E5E5E5"/>
<path d="M20.7713 20.7675H17.31V24.2325H20.7713V20.7675Z" fill="#141414"/>
<path d="M20.7713 17.3063H17.31V20.7675H20.7713V17.3063Z" fill="#141414"/>
<path d="M20.7713 13.845H17.31V17.3063H20.7713V13.845Z" fill="#E5E5E5"/>
<path d="M20.7713 10.3837H17.31V13.845H20.7713V10.3837Z" fill="#8800CC"/>
<path d="M20.7713 6.9225H17.31V10.3837H20.7713V6.9225Z" fill="#8800CC"/>
<path d="M20.7713 3.46125H17.31V6.9225H20.7713V3.46125Z" fill="#8800CC"/>
<path d="M20.7713 0H17.31V3.46125H20.7713V0Z" fill="#8800CC"/>
<path d="M17.31 41.5387H13.845V45H17.31V41.5387Z" fill="#8800CC"/>
<path d="M17.31 38.0775H13.845V41.5387H17.31V38.0775Z" fill="#8800CC"/>
<path d="M17.31 34.6162H13.845V38.0775H17.31V34.6162Z" fill="#8800CC"/>
<path d="M17.31 31.155H13.845V34.6162H17.31V31.155Z" fill="#8800CC"/>
<path d="M17.31 27.6937H13.845V31.155H17.31V27.6937Z" fill="#8800CC"/>
<path d="M17.31 24.2325H13.845V27.6937H17.31V24.2325Z" fill="#E5E5E5"/>
<path d="M17.31 20.7675H13.845V24.2325H17.31V20.7675Z" fill="#141414"/>
<path d="M17.31 17.3063H13.845V20.7675H17.31V17.3063Z" fill="#141414"/>
<path d="M17.31 13.845H13.845V17.3063H17.31V13.845Z" fill="#E5E5E5"/>
<path d="M17.31 10.3837H13.845V13.845H17.31V10.3837Z" fill="#8800CC"/>
<path d="M17.31 6.9225H13.845V10.3837H17.31V6.9225Z" fill="#8800CC"/>
<path d="M17.31 3.46125H13.845V6.9225H17.31V3.46125Z" fill="#8800CC"/>
<path d="M17.31 0H13.845V3.46125H17.31V0Z" fill="#8800CC"/>
<path d="M13.845 38.0775H10.3838V41.5387H13.845V38.0775Z" fill="#8800CC"/>
<path d="M13.845 34.6162H10.3838V38.0775H13.845V34.6162Z" fill="#8800CC"/>
<path d="M13.845 31.155H10.3838V34.6162H13.845V31.155Z" fill="#8800CC"/>
<path d="M13.845 27.6937H10.3838V31.155H13.845V27.6937Z" fill="#8800CC"/>
<path d="M13.845 24.2325H10.3838V27.6937H13.845V24.2325Z" fill="#8800CC"/>
<path d="M13.845 20.7675H10.3838V24.2325H13.845V20.7675Z" fill="#E5E5E5"/>
<path d="M13.845 17.3063H10.3838V20.7675H13.845V17.3063Z" fill="#E5E5E5"/>
<path d="M13.845 13.845H10.3838V17.3063H13.845V13.845Z" fill="#E5E5E5"/>
<path d="M13.845 10.3837H10.3838V13.845H13.845V10.3837Z" fill="#8800CC"/>
<path d="M13.845 6.9225H10.3838V10.3837H13.845V6.9225Z" fill="#8800CC"/>
<path d="M13.845 3.46125H10.3838V6.9225H13.845V3.46125Z" fill="#8800CC"/>
<path d="M10.3838 34.6162H6.92249V38.0775H10.3838V34.6162Z" fill="#8800CC"/>
<path d="M10.3838 31.155H6.92249V34.6162H10.3838V31.155Z" fill="#8800CC"/>
<path d="M10.3838 27.6937H6.92249V31.155H10.3838V27.6937Z" fill="#8800CC"/>
<path d="M10.3838 24.2325H6.92249V27.6937H10.3838V24.2325Z" fill="#8800CC"/>
<path d="M10.3838 20.7675H6.92249V24.2325H10.3838V20.7675Z" fill="#8800CC"/>
<path d="M10.3838 17.3063H6.92249V20.7675H10.3838V17.3063Z" fill="#8800CC"/>
<path d="M10.3838 13.845H6.92249V17.3063H10.3838V13.845Z" fill="#8800CC"/>
<path d="M10.3838 10.3837H6.92249V13.845H10.3838V10.3837Z" fill="#8800CC"/>
<path d="M10.3838 6.9225H6.92249V10.3837H10.3838V6.9225Z" fill="#8800CC"/>
<path d="M6.92249 38.0775H3.46124V41.5387H6.92249V38.0775Z" fill="#8800CC"/>
<path d="M6.92249 34.6162H3.46124V38.0775H6.92249V34.6162Z" fill="#8800CC"/>
<path d="M6.92249 31.155H3.46124V34.6162H6.92249V31.155Z" fill="#8800CC"/>
<path d="M6.92249 27.6937H3.46124V31.155H6.92249V27.6937Z" fill="#8800CC"/>
<path d="M6.92249 24.2325H3.46124V27.6937H6.92249V24.2325Z" fill="#8800CC"/>
<path d="M6.92249 20.7675H3.46124V24.2325H6.92249V20.7675Z" fill="#8800CC"/>
<path d="M6.92249 17.3063H3.46124V20.7675H6.92249V17.3063Z" fill="#8800CC"/>
<path d="M6.92249 13.845H3.46124V17.3063H6.92249V13.845Z" fill="#8800CC"/>
<path d="M6.92249 10.3837H3.46124V13.845H6.92249V10.3837Z" fill="#8800CC"/>
<path d="M3.46124 41.5387H0V45H3.46124V41.5387Z" fill="#8800CC"/>
<path d="M3.46124 38.0775H0V41.5387H3.46124V38.0775Z" fill="#8800CC"/>
<path d="M3.46124 34.6162H0V38.0775H3.46124V34.6162Z" fill="#8800CC"/>
<path d="M3.46124 31.155H0V34.6162H3.46124V31.155Z" fill="#8800CC"/>
<path d="M3.46124 27.6937H0V31.155H3.46124V27.6937Z" fill="#8800CC"/>
<path d="M3.46124 24.2325H0V27.6937H3.46124V24.2325Z" fill="#8800CC"/>
<path d="M3.46124 20.7675H0V24.2325H3.46124V20.7675Z" fill="#8800CC"/>
<path d="M3.46124 17.3063H0V20.7675H3.46124V17.3063Z" fill="#8800CC"/>
</svg>
