<svg width="45" height="45" viewBox="0 0 45 45" fill="none" xmlns="http://www.w3.org/2000/svg">
<path d="M0 41.5387H3.46124V45H0V41.5387Z" fill="#0D0DF2"/>
<path d="M0 38.0775H3.46124V41.5387H0V38.0775Z" fill="#0D0DF2"/>
<path d="M0 34.6162H3.46124V38.0775H0V34.6162Z" fill="#0D0DF2"/>
<path d="M0 31.155H3.46124V34.6162H0V31.155Z" fill="#0D0DF2"/>
<path d="M0 27.6937H3.46124V31.155H0V27.6937Z" fill="#0D0DF2"/>
<path d="M0 24.2325H3.46124V27.6937H0V24.2325Z" fill="#0D0DF2"/>
<path d="M0 20.7675H3.46124V24.2325H0V20.7675Z" fill="#0D0DF2"/>
<path d="M0 17.3063H3.46124V20.7675H0V17.3063Z" fill="#0D0DF2"/>
<path d="M3.46124 38.0775H6.92251V41.5387H3.46124V38.0775Z" fill="#0D0DF2"/>
<path d="M3.46124 34.6162H6.92251V38.0775H3.46124V34.6162Z" fill="#0D0DF2"/>
<path d="M3.46124 31.155H6.92251V34.6162H3.46124V31.155Z" fill="#0D0DF2"/>
<path d="M3.46124 27.6937H6.92251V31.155H3.46124V27.6937Z" fill="#0D0DF2"/>
<path d="M3.46124 24.2325H6.92251V27.6937H3.46124V24.2325Z" fill="#E5E5E5"/>
<path d="M3.46124 20.7675H6.92251V24.2325H3.46124V20.7675Z" fill="#141414"/>
<path d="M3.46124 17.3063H6.92251V20.7675H3.46124V17.3063Z" fill="#141414"/>
<path d="M3.46124 13.845H6.92251V17.3063H3.46124V13.845Z" fill="#E5E5E5"/>
<path d="M3.46124 10.3837H6.92251V13.845H3.46124V10.3837Z" fill="#0D0DF2"/>
<path d="M6.92251 34.6162H10.3838V38.0775H6.92251V34.6162Z" fill="#0D0DF2"/>
<path d="M6.92251 31.155H10.3838V34.6162H6.92251V31.155Z" fill="#0D0DF2"/>
<path d="M6.92251 27.6937H10.3838V31.155H6.92251V27.6937Z" fill="#0D0DF2"/>
<path d="M6.92251 24.2325H10.3838V27.6937H6.92251V24.2325Z" fill="#E5E5E5"/>
<path d="M6.92251 20.7675H10.3838V24.2325H6.92251V20.7675Z" fill="#141414"/>
<path d="M6.92251 17.3063H10.3838V20.7675H6.92251V17.3063Z" fill="#141414"/>
<path d="M6.92251 13.845H10.3838V17.3063H6.92251V13.845Z" fill="#E5E5E5"/>
<path d="M6.92251 10.3837H10.3838V13.845H6.92251V10.3837Z" fill="#0D0DF2"/>
<path d="M6.92251 6.9225H10.3838V10.3837H6.92251V6.9225Z" fill="#0D0DF2"/>
<path d="M10.3838 38.0775H13.845V41.5387H10.3838V38.0775Z" fill="#0D0DF2"/>
<path d="M10.3838 34.6162H13.845V38.0775H10.3838V34.6162Z" fill="#0D0DF2"/>
<path d="M10.3838 31.155H13.845V34.6162H10.3838V31.155Z" fill="#0D0DF2"/>
<path d="M10.3838 27.6937H13.845V31.155H10.3838V27.6937Z" fill="#0D0DF2"/>
<path d="M10.3838 24.2325H13.845V27.6937H10.3838V24.2325Z" fill="#0D0DF2"/>
<path d="M10.3838 20.7675H13.845V24.2325H10.3838V20.7675Z" fill="#E5E5E5"/>
<path d="M10.3838 17.3063H13.845V20.7675H10.3838V17.3063Z" fill="#E5E5E5"/>
<path d="M10.3838 13.845H13.845V17.3063H10.3838V13.845Z" fill="#E5E5E5"/>
<path d="M10.3838 10.3837H13.845V13.845H10.3838V10.3837Z" fill="#0D0DF2"/>
<path d="M10.3838 6.9225H13.845V10.3837H10.3838V6.9225Z" fill="#0D0DF2"/>
<path d="M10.3838 3.46125H13.845V6.9225H10.3838V3.46125Z" fill="#0D0DF2"/>
<path d="M13.845 41.5387H17.3063V45H13.845V41.5387Z" fill="#0D0DF2"/>
<path d="M13.845 38.0775H17.3063V41.5387H13.845V38.0775Z" fill="#0D0DF2"/>
<path d="M13.845 34.6162H17.3063V38.0775H13.845V34.6162Z" fill="#0D0DF2"/>
<path d="M13.845 31.155H17.3063V34.6162H13.845V31.155Z" fill="#0D0DF2"/>
<path d="M13.845 27.6937H17.3063V31.155H13.845V27.6937Z" fill="#0D0DF2"/>
<path d="M13.845 24.2325H17.3063V27.6937H13.845V24.2325Z" fill="#0D0DF2"/>
<path d="M13.845 20.7675H17.3063V24.2325H13.845V20.7675Z" fill="#0D0DF2"/>
<path d="M13.845 17.3063H17.3063V20.7675H13.845V17.3063Z" fill="#0D0DF2"/>
<path d="M13.845 13.845H17.3063V17.3063H13.845V13.845Z" fill="#0D0DF2"/>
<path d="M13.845 10.3837H17.3063V13.845H13.845V10.3837Z" fill="#0D0DF2"/>
<path d="M13.845 6.9225H17.3063V10.3837H13.845V6.9225Z" fill="#0D0DF2"/>
<path d="M13.845 3.46125H17.3063V6.9225H13.845V3.46125Z" fill="#0D0DF2"/>
<path d="M13.845 0H17.3063V3.46125H13.845V0Z" fill="#0D0DF2"/>
<path d="M17.3063 38.0775H20.7675V41.5387H17.3063V38.0775Z" fill="#0D0DF2"/>
<path d="M17.3063 34.6162H20.7675V38.0775H17.3063V34.6162Z" fill="#0D0DF2"/>
<path d="M17.3063 31.155H20.7675V34.6162H17.3063V31.155Z" fill="#0D0DF2"/>
<path d="M17.3063 27.6937H20.7675V31.155H17.3063V27.6937Z" fill="#0D0DF2"/>
<path d="M17.3063 24.2325H20.7675V27.6937H17.3063V24.2325Z" fill="#0D0DF2"/>
<path d="M17.3063 20.7675H20.7675V24.2325H17.3063V20.7675Z" fill="#0D0DF2"/>
<path d="M17.3063 17.3063H20.7675V20.7675H17.3063V17.3063Z" fill="#0D0DF2"/>
<path d="M17.3063 13.845H20.7675V17.3063H17.3063V13.845Z" fill="#0D0DF2"/>
<path d="M17.3063 10.3837H20.7675V13.845H17.3063V10.3837Z" fill="#0D0DF2"/>
<path d="M17.3063 6.9225H20.7675V10.3837H17.3063V6.9225Z" fill="#0D0DF2"/>
<path d="M17.3063 3.46125H20.7675V6.9225H17.3063V3.46125Z" fill="#0D0DF2"/>
<path d="M17.3063 0H20.7675V3.46125H17.3063V0Z" fill="#0D0DF2"/>
<path d="M20.7675 34.6162H24.2287V38.0775H20.7675V34.6162Z" fill="#0D0DF2"/>
<path d="M20.7675 31.155H24.2287V34.6162H20.7675V31.155Z" fill="#0D0DF2"/>
<path d="M20.7675 27.6937H24.2287V31.155H20.7675V27.6937Z" fill="#0D0DF2"/>
<path d="M20.7675 24.2325H24.2287V27.6937H20.7675V24.2325Z" fill="#0D0DF2"/>
<path d="M20.7675 20.7675H24.2287V24.2325H20.7675V20.7675Z" fill="#0D0DF2"/>
<path d="M20.7675 17.3063H24.2287V20.7675H20.7675V17.3063Z" fill="#0D0DF2"/>
<path d="M20.7675 13.845H24.2287V17.3063H20.7675V13.845Z" fill="#0D0DF2"/>
<path d="M20.7675 10.3837H24.2287V13.845H20.7675V10.3837Z" fill="#0D0DF2"/>
<path d="M20.7675 6.9225H24.2287V10.3837H20.7675V6.9225Z" fill="#0D0DF2"/>
<path d="M20.7675 3.46125H24.2287V6.9225H20.7675V3.46125Z" fill="#0D0DF2"/>
<path d="M20.7675 0H24.2287V3.46125H20.7675V0Z" fill="#0D0DF2"/>
<path d="M24.2287 38.0775H27.69V41.5387H24.2287V38.0775Z" fill="#0D0DF2"/>
<path d="M24.2287 34.6162H27.69V38.0775H24.2287V34.6162Z" fill="#0D0DF2"/>
<path d="M24.2287 31.155H27.69V34.6162H24.2287V31.155Z" fill="#0D0DF2"/>
<path d="M24.2287 27.6937H27.69V31.155H24.2287V27.6937Z" fill="#0D0DF2"/>
<path d="M24.2287 24.2325H27.69V27.6937H24.2287V24.2325Z" fill="#E5E5E5"/>
<path d="M24.2287 20.7675H27.69V24.2325H24.2287V20.7675Z" fill="#141414"/>
<path d="M24.2287 17.3063H27.69V20.7675H24.2287V17.3063Z" fill="#141414"/>
<path d="M24.2287 13.845H27.69V17.3063H24.2287V13.845Z" fill="#E5E5E5"/>
<path d="M24.2287 10.3837H27.69V13.845H24.2287V10.3837Z" fill="#0D0DF2"/>
<path d="M24.2287 6.9225H27.69V10.3837H24.2287V6.9225Z" fill="#0D0DF2"/>
<path d="M24.2287 3.46125H27.69V6.9225H24.2287V3.46125Z" fill="#0D0DF2"/>
<path d="M24.2287 0H27.69V3.46125H24.2287V0Z" fill="#0D0DF2"/>
<path d="M27.69 41.5387H31.155V45H27.69V41.5387Z" fill="#0D0DF2"/>
<path d="M27.69 38.0775H31.155V41.5387H27.69V38.0775Z" fill="#0D0DF2"/>
<path d="M27.69 34.6162H31.155V38.0775H27.69V34.6162Z" fill="#0D0DF2"/>
<path d="M27.69 31.155H31.155V34.6162H27.69V31.155Z" fill="#0D0DF2"/>
<path d="M27.69 27.6937H31.155V31.155H27.69V27.6937Z" fill="#0D0DF2"/>
<path d="M27.69 24.2325H31.155V27.6937H27.69V24.2325Z" fill="#E5E5E5"/>
<path d="M27.69 20.7675H31.155V24.2325H27.69V20.7675Z" fill="#141414"/>
<path d="M27.69 17.3063H31.155V20.7675H27.69V17.3063Z" fill="#141414"/>
<path d="M27.69 13.845H31.155V17.3063H27.69V13.845Z" fill="#E5E5E5"/>
<path d="M27.69 10.3837H31.155V13.845H27.69V10.3837Z" fill="#0D0DF2"/>
<path d="M27.69 6.9225H31.155V10.3837H27.69V6.9225Z" fill="#0D0DF2"/>
<path d="M27.69 3.46125H31.155V6.9225H27.69V3.46125Z" fill="#0D0DF2"/>
<path d="M27.69 0H31.155V3.46125H27.69V0Z" fill="#0D0DF2"/>
<path d="M31.155 38.0775H34.6162V41.5387H31.155V38.0775Z" fill="#0D0DF2"/>
<path d="M31.155 34.6162H34.6162V38.0775H31.155V34.6162Z" fill="#0D0DF2"/>
<path d="M31.155 31.155H34.6162V34.6162H31.155V31.155Z" fill="#0D0DF2"/>
<path d="M31.155 27.6937H34.6162V31.155H31.155V27.6937Z" fill="#0D0DF2"/>
<path d="M31.155 24.2325H34.6162V27.6937H31.155V24.2325Z" fill="#0D0DF2"/>
<path d="M31.155 20.7675H34.6162V24.2325H31.155V20.7675Z" fill="#E5E5E5"/>
<path d="M31.155 17.3063H34.6162V20.7675H31.155V17.3063Z" fill="#E5E5E5"/>
<path d="M31.155 13.845H34.6162V17.3063H31.155V13.845Z" fill="#E5E5E5"/>
<path d="M31.155 10.3837H34.6162V13.845H31.155V10.3837Z" fill="#0D0DF2"/>
<path d="M31.155 6.9225H34.6162V10.3837H31.155V6.9225Z" fill="#0D0DF2"/>
<path d="M31.155 3.46125H34.6162V6.9225H31.155V3.46125Z" fill="#0D0DF2"/>
<path d="M34.6162 34.6162H38.0775V38.0775H34.6162V34.6162Z" fill="#0D0DF2"/>
<path d="M34.6162 31.155H38.0775V34.6162H34.6162V31.155Z" fill="#0D0DF2"/>
<path d="M34.6162 27.6937H38.0775V31.155H34.6162V27.6937Z" fill="#0D0DF2"/>
<path d="M34.6162 24.2325H38.0775V27.6937H34.6162V24.2325Z" fill="#0D0DF2"/>
<path d="M34.6162 20.7675H38.0775V24.2325H34.6162V20.7675Z" fill="#0D0DF2"/>
<path d="M34.6162 17.3063H38.0775V20.7675H34.6162V17.3063Z" fill="#0D0DF2"/>
<path d="M34.6162 13.845H38.0775V17.3063H34.6162V13.845Z" fill="#0D0DF2"/>
<path d="M34.6162 10.3837H38.0775V13.845H34.6162V10.3837Z" fill="#0D0DF2"/>
<path d="M34.6162 6.9225H38.0775V10.3837H34.6162V6.9225Z" fill="#0D0DF2"/>
<path d="M38.0775 38.0775H41.5388V41.5387H38.0775V38.0775Z" fill="#0D0DF2"/>
<path d="M38.0775 34.6162H41.5388V38.0775H38.0775V34.6162Z" fill="#0D0DF2"/>
<path d="M38.0775 31.155H41.5388V34.6162H38.0775V31.155Z" fill="#0D0DF2"/>
<path d="M38.0775 27.6937H41.5388V31.155H38.0775V27.6937Z" fill="#0D0DF2"/>
<path d="M38.0775 24.2325H41.5388V27.6937H38.0775V24.2325Z" fill="#0D0DF2"/>
<path d="M38.0775 20.7675H41.5388V24.2325H38.0775V20.7675Z" fill="#0D0DF2"/>
<path d="M38.0775 17.3063H41.5388V20.7675H38.0775V17.3063Z" fill="#0D0DF2"/>
<path d="M38.0775 13.845H41.5388V17.3063H38.0775V13.845Z" fill="#0D0DF2"/>
<path d="M38.0775 10.3837H41.5388V13.845H38.0775V10.3837Z" fill="#0D0DF2"/>
<path d="M41.5388 41.5387H45V45H41.5388V41.5387Z" fill="#0D0DF2"/>
<path d="M41.5388 38.0775H45V41.5387H41.5388V38.0775Z" fill="#0D0DF2"/>
<path d="M41.5388 34.6162H45V38.0775H41.5388V34.6162Z" fill="#0D0DF2"/>
<path d="M41.5388 31.155H45V34.6162H41.5388V31.155Z" fill="#0D0DF2"/>
<path d="M41.5388 27.6937H45V31.155H41.5388V27.6937Z" fill="#0D0DF2"/>
<path d="M41.5388 24.2325H45V27.6937H41.5388V24.2325Z" fill="#0D0DF2"/>
<path d="M41.5388 20.7675H45V24.2325H41.5388V20.7675Z" fill="#0D0DF2"/>
<path d="M41.5388 17.3063H45V20.7675H41.5388V17.3063Z" fill="#0D0DF2"/>
</svg>
