<svg width="464" height="40" viewBox="0 0 464 40" fill="none" xmlns="http://www.w3.org/2000/svg">
<path d="M49.6948 27.8735C49.6948 20.3874 45.0226 16.7771 34.6165 16.1931L14.866 15.0251C11.5742 14.8127 10.1938 14.4941 10.1938 12.4766C10.1938 10.2998 11.6273 9.76889 21.3964 9.76889C30.4752 9.76889 40.0319 10.7777 46.1907 11.9988L47.9427 3.8756C40.7752 2.33591 30.3159 1.32715 23.8917 1.32715C7.11442 1.32715 0 4.6189 0 12.7421C0 19.4849 4.08814 23.0952 15.3438 23.6261L35.3598 24.7941C38.1737 25.0596 39.501 25.3251 39.501 27.555C39.501 29.7318 37.9613 30.422 29.4665 30.422C18.5825 30.422 9.55669 28.9885 2.12371 27.3426L0.58402 35.9967C7.11442 37.5895 17.5737 38.8637 26.5995 38.8637C44.4917 38.8637 49.6948 35.5189 49.6948 27.8735Z" fill="#ffffff"/>
<path d="M53.5025 24.5818C53.5025 34.4039 60.3515 38.7575 76.4917 38.7575C83.4468 38.7575 90.0303 37.8549 94.968 36.6869L92.9504 28.6699C89.0216 29.4663 83.4468 30.3158 75.0051 30.3158C66.5633 30.3158 63.5371 29.0946 63.5371 24.5818C63.5371 20.122 66.5633 18.8477 75.0051 18.8477C83.4468 18.8477 89.0216 19.6972 92.9504 20.4936L94.968 12.4766C90.0303 11.3086 83.2876 10.406 76.4917 10.406C60.3515 10.406 53.5025 14.7065 53.5025 24.5818Z" fill="#ffffff"/>
<path d="M99.6206 38.1735H109.655V22.5642C115.867 20.3343 121.548 19.4318 129.14 19.4318V10.406C121.654 10.406 114.752 12.8483 109.23 15.7153L108.434 11.0962H99.6206V38.1735Z" fill="#ffffff"/>
<path d="M132.737 26.1745C132.737 35.2003 138.152 38.9168 147.974 38.9168C154.558 38.9168 161.088 37.1116 166.663 34.9348L167.247 38.1735H176.007V11.0962H166.026V28.0859C160.345 29.6787 155.301 30.5812 151.266 30.5812C145.585 30.5812 142.718 28.6168 142.718 24.4756V11.0962H132.737V26.1745Z" fill="#ffffff"/>
<path d="M181.385 38.1735H191.42V20.9715C195.88 19.591 199.649 18.7416 203.26 18.7416C208.516 18.7416 211.171 20.706 211.171 24.8472V38.1735H221.205V23.1483C221.205 22.3519 221.152 21.6086 221.099 20.9184C225.612 19.538 229.434 18.7416 233.045 18.7416C238.301 18.7416 240.956 20.706 240.956 24.8472V38.1735H250.99V23.1483C250.99 14.1225 245.787 10.406 236.336 10.406C230.072 10.406 223.966 12.4235 218.763 14.7596C216.32 11.7333 212.179 10.406 206.498 10.406C200.924 10.406 195.508 12.0519 190.783 14.1225L190.199 11.1493H181.385V38.1735Z" fill="#ffffff"/>
<path d="M269.969 26.94C268.626 29.4344 266.411 32.3446 264.263 34.257C266.076 34.8806 269.163 36.211 270.573 36.9593C272.788 34.7559 275.608 31.2221 277.353 28.3119L269.969 26.94ZM285.677 9.35416C285.14 10.6845 284.133 12.3475 283.327 13.6363H274.466L279.3 12.8048C279.031 11.8902 278.293 10.5182 277.621 9.35416H285.677ZM296.82 26.1085V21.078H287.422V18.542H298.162V13.6363H291.987C292.792 12.5554 293.665 11.3081 294.672 9.9362L289.57 9.35416H297.088V4.48999H288.093C287.355 3.07648 286.281 1.37194 285.408 0L275.608 1.45509C276.145 2.36972 276.682 3.45064 277.152 4.48999H266.545V9.35416H274.869L269.633 10.1441C270.17 11.1834 270.842 12.5969 271.177 13.6363H265.471V18.542H277.957V21.078H265.941V26.1085H277.957V39.6201H287.422V26.1085H296.82ZM328.571 14.0936H308.902V8.31481C315.212 7.56647 321.858 6.48555 327.362 5.11361L319.978 0.665185C315.011 2.16185 307.157 3.57537 299.84 4.44842V19.6229C299.84 22.9904 299.706 26.9816 298.431 30.6401C297.222 29.2681 295.611 27.6467 294.135 26.3164L287.892 28.5198C289.704 30.349 291.919 32.8851 292.993 34.4649L297.558 32.6772C296.887 34.0076 296.081 35.2548 294.94 36.3773C296.954 37.0009 300.914 38.8717 302.458 39.9111C308.03 34.6727 308.902 25.8591 308.902 19.6645H313.467V39.7864H322.932V19.6645H328.571V14.0936Z" fill="#ffffff"/>
<path d="M395.16 21.8264H369.182V17.96H391.065V12.1812H369.182V7.5249C376.365 6.98444 383.212 6.27768 389.387 5.36305L382.339 0.332593C370.86 2.0787 352.938 3.15963 336.626 3.53379C337.566 4.86416 338.774 7.31703 339.042 8.85527C345.419 8.73055 352.199 8.52268 358.979 8.14851V12.1812H337.566V17.96H358.979V21.8264H332.867V27.7299H358.979V33.0098C358.979 33.8413 358.375 34.1323 356.831 34.1323C355.22 34.1323 349.447 34.1323 344.815 34.0076C346.292 35.5874 348.172 38.2897 348.776 39.9942C355.488 40.0358 360.657 39.8695 364.282 38.9549C367.907 38.0402 369.182 36.502 369.182 33.1345V27.7299H395.16V21.8264Z" fill="#ffffff"/>
<path d="M419.326 14.5925H427.582V8.89684H419.326V0.498889H409.861V8.89684H400.329V14.5925H408.787C406.639 19.1656 402.813 24.2377 398.315 27.4389C399.859 29.0187 402.141 31.5547 403.081 33.3424C405.632 31.3884 407.914 28.7277 409.861 25.7759V39.9942H419.326V23.9882C420.803 25.568 422.279 27.1478 423.219 28.3951L429.059 23.3646C427.65 22.2421 421.541 17.5858 419.326 16.1723V14.5925ZM463.361 8.77212H456.715V0.540463H446.714V8.77212H429.462V14.5093H446.714V32.7188C446.714 33.5087 446.244 33.7581 444.901 33.7581C443.491 33.7581 439.195 33.7581 435.235 33.6334C436.645 35.3795 438.188 38.2481 438.591 39.9942C444.767 40.0358 449.466 39.7864 452.554 38.7886C455.708 37.8324 456.715 36.1694 456.715 32.8019V14.5093H463.361V8.77212ZM445.304 26.3164C444.23 23.6141 440.873 19.8308 437.517 16.9206L429.462 19.3319C432.617 22.3668 435.638 26.3995 436.51 29.0187L445.304 26.3164Z" fill="#ffffff"/>
</svg>
